<svg xmlns="http://www.w3.org/2000/svg" version="1.1" xmlns:xlink="http://www.w3.org/1999/xlink" xmlns:svgjs="http://svgjs.com/svgjs" width="60" height="60"><svg width="60" height="60" viewBox="0 0 60 60" fill="none" xmlns="http://www.w3.org/2000/svg">
<rect width="60" height="60" rx="3" fill="#191919"></rect>
<path d="M11.6394 23H5.85337V8.326H11.6394C13.942 8.326 15.812 9.00067 17.2494 10.35C18.7014 11.6993 19.4274 13.474 19.4274 15.674C19.4274 17.874 18.7087 19.6487 17.2714 20.998C15.834 22.3327 13.9567 23 11.6394 23ZM11.6394 20.25C13.0474 20.25 14.162 19.81 14.9834 18.93C15.8194 18.05 16.2374 16.9647 16.2374 15.674C16.2374 14.3247 15.834 13.2247 15.0274 12.374C14.2207 11.5087 13.0914 11.076 11.6394 11.076H8.97737V20.25H11.6394ZM34.5764 23H31.0124L30.1104 20.514H23.8184L22.8944 23H19.3304L25.0064 8.326H28.9224L34.5764 23ZM29.2524 17.764L26.9644 11.45L24.6764 17.764H29.2524ZM42.2855 23.286C40.0855 23.286 38.2302 22.582 36.7195 21.174C35.2235 19.766 34.4755 17.9327 34.4755 15.674C34.4755 13.4007 35.2235 11.5673 36.7195 10.174C38.2302 8.78067 40.0855 8.084 42.2855 8.084C44.9549 8.084 46.9789 9.17667 48.3575 11.362L45.7615 12.77C45.4095 12.2127 44.9255 11.758 44.3095 11.406C43.7082 11.0393 43.0335 10.856 42.2855 10.856C40.9509 10.856 39.8509 11.3107 38.9855 12.22C38.1202 13.1293 37.6875 14.2807 37.6875 15.674C37.6875 17.0673 38.1202 18.2187 38.9855 19.128C39.8509 20.0373 40.9509 20.492 42.2855 20.492C42.9015 20.492 43.4955 20.382 44.0675 20.162C44.6395 19.942 45.0869 19.678 45.4095 19.37V17.61H41.5375V14.882H48.5335V20.514C46.8762 22.362 44.7935 23.286 42.2855 23.286ZM54.1375 23H51.0135V8.326H54.1375V23Z" fill="white"></path>
<rect y="32" width="60" height="28" rx="3" fill="#FFDD2D"></rect>
<path d="M21.994 53H18.672L16.098 42.924L13.546 53H10.224L6.022 38.326H9.52L12.094 48.93L14.888 38.326H17.33L20.102 48.93L22.654 38.326H26.174L21.994 53ZM38.0313 53H27.6473V38.326H38.0313V41.076H30.7713V44.178H37.8773V46.928H30.7713V50.25H38.0313V53ZM48.4375 53H40.4735V38.326H48.1955C49.5302 38.326 50.5642 38.6927 51.2975 39.426C52.0455 40.1447 52.4195 41.0247 52.4195 42.066C52.4195 42.9607 52.1775 43.7087 51.6935 44.31C51.2095 44.9113 50.6082 45.2853 49.8895 45.432C50.6815 45.5493 51.3488 45.9527 51.8915 46.642C52.4342 47.3313 52.7055 48.1307 52.7055 49.04C52.7055 50.184 52.3315 51.13 51.5835 51.878C50.8355 52.626 49.7868 53 48.4375 53ZM47.5135 44.2C48.0415 44.2 48.4595 44.0533 48.7675 43.76C49.0755 43.4667 49.2295 43.0853 49.2295 42.616C49.2295 42.1467 49.0682 41.7653 48.7455 41.472C48.4375 41.164 48.0268 41.01 47.5135 41.01H43.5975V44.2H47.5135ZM47.6235 50.294C48.2102 50.294 48.6722 50.1473 49.0095 49.854C49.3468 49.546 49.5155 49.128 49.5155 48.6C49.5155 48.116 49.3468 47.7127 49.0095 47.39C48.6722 47.0527 48.2102 46.884 47.6235 46.884H43.5975V50.294H47.6235Z" fill="#1A1A1A"></path>
</svg><style>@media (prefers-color-scheme: light) { :root { filter: none; } }
</style></svg>