<svg width="56" height="56" viewBox="0 0 56 56" fill="none" xmlns="http://www.w3.org/2000/svg">
<rect width="56" height="56" rx="10" fill="#390000"/>
<path d="M27.0704 35.4084H18.3904L16.6171 40.8917C16.5704 41.1017 16.3839 41.2417 16.1739 41.2184H11.7871C11.5304 41.2184 11.4604 41.0784 11.5304 40.7984L19.0437 19.1684C19.1137 18.9351 19.1837 18.6784 19.277 18.3984C19.3703 17.9084 19.417 17.3951 19.417 16.8817C19.3937 16.765 19.487 16.6484 19.6037 16.625H19.6737H25.647C25.8337 16.625 25.927 16.695 25.9503 16.8117L34.467 40.845C34.537 41.1017 34.467 41.2183 34.2337 41.2183H29.357C29.1937 41.2416 29.0303 41.125 28.9837 40.9616L27.0704 35.4084ZM19.7437 30.6717H25.6704L22.6837 20.9417L19.7437 30.6717Z" fill="#FF9A00"/>
<path d="M39.554 20.6146C38.784 20.6379 38.0373 20.3346 37.4773 19.7979C36.9406 19.2146 36.6606 18.4446 36.684 17.6512C36.6607 16.8579 36.964 16.1112 37.524 15.5745C38.084 15.0378 38.8307 14.7578 39.6007 14.7578C40.5107 14.7578 41.2107 15.0378 41.724 15.5745C42.2373 16.1345 42.5173 16.8812 42.494 17.6512C42.5173 18.4445 42.2373 19.2145 41.6773 19.7979C41.1407 20.3579 40.3473 20.6612 39.554 20.6146Z" fill="#FF9A00"/>
<path d="M36.9404 40.8676V22.9009C36.9404 22.6676 37.0337 22.5742 37.2437 22.5742H41.8637C42.0737 22.5742 42.167 22.6909 42.167 22.9009V40.8676C42.167 41.1243 42.0737 41.2409 41.8637 41.2409H37.2904C37.057 41.2409 36.9404 41.1009 36.9404 40.8676Z" fill="#FF9A00"/>
<rect x="0.5" y="0.5" width="55" height="55" rx="9.5" stroke="white" stroke-opacity="0.2"/>
</svg>
