<svg width="56" height="56" viewBox="0 0 56 56" fill="none" xmlns="http://www.w3.org/2000/svg">
<rect width="56" height="56" rx="10" fill="#1B1A19"/>
<path d="M28.041 28.0013C28.041 24.5035 30.8736 21.668 34.3678 21.668C37.862 21.668 40.6946 24.5036 40.6946 28.0013C40.6946 31.4992 37.8619 34.3346 34.3678 34.3346C30.8735 34.3346 28.041 31.4991 28.041 28.0013Z" fill="#00BCFF"/>
<path d="M15.3818 40.667C15.3818 37.1692 18.2144 34.3337 21.7086 34.3337L25.0802 32.5518L28.0354 34.3337V40.667C28.0354 44.1649 25.2028 47.0004 21.7086 47.0004C18.2144 47.0004 15.3818 44.1648 15.3818 40.667Z" fill="#00CF7F"/>
<path d="M28.0355 9L24.5928 14.9873L28.0355 21.6667H34.2735C37.7678 21.6667 40.6003 18.8311 40.6003 15.3333C40.6003 11.8355 37.7677 9 34.2735 9H28.0355Z" fill="#FF7361"/>
<path d="M15.3057 15.3333C15.3057 18.8311 18.1383 21.6667 21.6324 21.6667L24.9886 22.9643L28.048 21.6667V9H21.6324C18.1383 9 15.3057 11.8355 15.3057 15.3333Z" fill="#FF4D12"/>
<path d="M15.3818 28.0014C15.3818 31.4993 18.2144 34.3347 21.7086 34.3347H28.0354V21.668H21.7086C18.2144 21.668 15.3818 24.5036 15.3818 28.0014Z" fill="#B659FF"/>
<rect x="0.5" y="0.5" width="55" height="55" rx="9.5" stroke="white" stroke-opacity="0.2"/>
</svg>
