<svg width="56" height="56" viewBox="0 0 56 56" fill="none" xmlns="http://www.w3.org/2000/svg">
<rect width="56" height="56" rx="10" fill="#FFDF00"/>
<path d="M31.0721 32.8237C32.1112 34.5204 33.4633 35.7677 35.8545 35.7677C37.8632 35.7677 39.1464 34.7637 39.1464 33.3765C39.1464 31.7141 37.828 31.1253 35.617 30.1582L34.4049 29.6381C30.9066 28.1478 28.5825 26.2806 28.5825 22.3335C28.5825 18.6976 31.3529 15.9297 35.6824 15.9297C38.7647 15.9297 40.9807 17.0024 42.5775 19.8113L38.8024 22.2353C37.9712 20.7449 37.0745 20.1577 35.6824 20.1577C34.2624 20.1577 33.3624 21.0585 33.3624 22.2353C33.3624 23.6897 34.2632 24.2784 36.3432 25.1793L37.5552 25.6984C41.6743 27.4648 43.9999 29.2655 43.9999 33.3142C43.9999 37.679 40.5711 40.0702 35.9664 40.0702C31.4641 40.0702 28.5554 37.9246 27.1321 35.1125L31.0721 32.8237ZM13.9463 33.2438C14.7079 34.595 15.4007 35.7374 17.0663 35.7374C18.6591 35.7374 19.6639 35.1141 19.6639 32.6911V16.2065H24.5118V32.7565C24.5118 37.7763 21.5687 40.0611 17.2727 40.0611C13.3911 40.0611 11.1433 38.0523 10 35.6329L13.9463 33.2438Z" fill="black"/>
<rect x="0.5" y="0.5" width="55" height="55" rx="9.5" stroke="white" stroke-opacity="0.2"/>
</svg>
