<svg width="118" height="28" viewBox="0 0 118 28" fill="none" xmlns="http://www.w3.org/2000/svg">
<path d="M7.238 21.5H1.452V6.826H7.238C9.54067 6.826 11.4107 7.50067 12.848 8.85C14.3 10.1993 15.026 11.974 15.026 14.174C15.026 16.374 14.3073 18.1487 12.87 19.498C11.4327 20.8327 9.55533 21.5 7.238 21.5ZM7.238 18.75C8.646 18.75 9.76067 18.31 10.582 17.43C11.418 16.55 11.836 15.4647 11.836 14.174C11.836 12.8247 11.4327 11.7247 10.626 10.874C9.81933 10.0087 8.69 9.576 7.238 9.576H4.576V18.75H7.238ZM30.1751 21.5H26.6111L25.7091 19.014H19.4171L18.4931 21.5H14.9291L20.6051 6.826H24.5211L30.1751 21.5ZM24.8511 16.264L22.5631 9.95L20.2751 16.264H24.8511ZM37.8842 21.786C35.6842 21.786 33.8288 21.082 32.3182 19.674C30.8222 18.266 30.0742 16.4327 30.0742 14.174C30.0742 11.9007 30.8222 10.0673 32.3182 8.674C33.8288 7.28067 35.6842 6.584 37.8842 6.584C40.5535 6.584 42.5775 7.67667 43.9562 9.862L41.3602 11.27C41.0082 10.7127 40.5242 10.258 39.9082 9.906C39.3068 9.53933 38.6322 9.356 37.8842 9.356C36.5495 9.356 35.4495 9.81067 34.5842 10.72C33.7188 11.6293 33.2862 12.7807 33.2862 14.174C33.2862 15.5673 33.7188 16.7187 34.5842 17.628C35.4495 18.5373 36.5495 18.992 37.8842 18.992C38.5002 18.992 39.0942 18.882 39.6662 18.662C40.2382 18.442 40.6855 18.178 41.0082 17.87V16.11H37.1362V13.382H44.1322V19.014C42.4748 20.862 40.3922 21.786 37.8842 21.786ZM49.7362 21.5H46.6122V6.826H49.7362V21.5Z" fill="white"/>
<rect x="58" y="0.5" width="60" height="27" rx="3" fill="#FFDD2D"/>
<path d="M79.994 21.5H76.672L74.098 11.424L71.546 21.5H68.224L64.022 6.826H67.52L70.094 17.43L72.888 6.826H75.33L78.102 17.43L80.654 6.826H84.174L79.994 21.5ZM96.0313 21.5H85.6473V6.826H96.0313V9.576H88.7713V12.678H95.8773V15.428H88.7713V18.75H96.0313V21.5ZM106.437 21.5H98.4735V6.826H106.195C107.53 6.826 108.564 7.19267 109.297 7.926C110.045 8.64467 110.419 9.52467 110.419 10.566C110.419 11.4607 110.177 12.2087 109.693 12.81C109.209 13.4113 108.608 13.7853 107.889 13.932C108.681 14.0493 109.349 14.4527 109.891 15.142C110.434 15.8313 110.705 16.6307 110.705 17.54C110.705 18.684 110.331 19.63 109.583 20.378C108.835 21.126 107.787 21.5 106.437 21.5ZM105.513 12.7C106.041 12.7 106.459 12.5533 106.767 12.26C107.075 11.9667 107.229 11.5853 107.229 11.116C107.229 10.6467 107.068 10.2653 106.745 9.972C106.437 9.664 106.027 9.51 105.513 9.51H101.597V12.7H105.513ZM105.623 18.794C106.21 18.794 106.672 18.6473 107.009 18.354C107.347 18.046 107.515 17.628 107.515 17.1C107.515 16.616 107.347 16.2127 107.009 15.89C106.672 15.5527 106.21 15.384 105.623 15.384H101.597V18.794H105.623Z" fill="#1A1A1A"/>
</svg>
