<svg width="56" height="56" viewBox="0 0 56 56" fill="none" xmlns="http://www.w3.org/2000/svg">
<rect width="56" height="56" rx="10" fill="#777BB3"/>
<path d="M17.8319 22.479H12.0109C11.9457 22.4753 11.8811 22.4929 11.8268 22.5291C11.7725 22.5653 11.7314 22.6182 11.7098 22.6797L9 36.8324C9 37.1335 9.30109 37.1335 9.30109 37.1335H12.312C12.6131 37.1335 12.6131 36.9328 12.6131 36.9328L13.3156 33.4197H16.0254C20.2406 33.4197 22.3482 30.6092 22.85 28.0999C23.3519 25.5906 22.9504 22.479 17.8319 22.479ZM19.1366 27.8992C18.7352 29.8063 17.4305 30.6092 15.6239 30.6092H13.8174L14.9214 25.2895H16.7279C19.4377 25.2895 19.3374 26.2932 19.1366 27.8992Z" fill="black" stroke="white" stroke-width="0.602208"/>
<path d="M29.8752 33.4204C29.4737 33.4204 29.5741 33.0189 29.5741 33.0189L30.7784 26.8961C30.7784 26.0931 31.3806 25.2901 28.9719 25.3905H27.1654L25.6599 33.2196C25.6599 33.2196 25.6599 33.5207 25.2585 33.5207H22.348C22.0469 33.5207 22.0469 33.2196 22.0469 33.2196L24.857 19.067C24.857 19.067 24.857 18.8662 25.2585 18.8662H28.2694C28.5704 18.8662 28.4701 19.1673 28.4701 19.1673L27.7675 22.58H30.377C33.99 22.58 34.8933 24.2864 34.5922 26.2938L33.2875 33.2196C33.2875 33.2196 33.2875 33.5207 32.7857 33.5207L29.8752 33.4204Z" fill="black" stroke="white" stroke-width="0.602208"/>
<path d="M41.8192 22.479H35.9982C35.933 22.4753 35.8684 22.4929 35.8141 22.5291C35.7598 22.5653 35.7187 22.6182 35.6971 22.6797L32.9873 36.8324C32.9873 37.1335 33.2884 37.1335 33.2884 37.1335H36.2993C36.6004 37.1335 36.6004 36.9328 36.6004 36.9328L37.3029 33.4197H40.0127C44.2279 33.4197 46.3355 30.6092 46.8373 28.0999C47.3392 25.5906 46.9377 22.479 41.8192 22.479ZM43.1239 27.8992C42.7225 29.8063 41.4178 30.6092 39.6112 30.6092H37.8047L38.9087 25.2895H40.7152C43.425 25.2895 43.3247 26.2932 43.1239 27.8992Z" fill="black" stroke="white" stroke-width="0.602208"/>
<rect x="0.5" y="0.5" width="55" height="55" rx="9.5" stroke="white" stroke-opacity="0.2"/>
</svg>
