<svg width="56" height="56" viewBox="0 0 56 56" fill="none" xmlns="http://www.w3.org/2000/svg">
<rect width="56" height="56" rx="10" fill="#001834"/>
<path d="M10.6523 39.8071V15.7971C10.6523 15.6338 10.7223 15.5404 10.8856 15.5404C11.2823 15.5404 11.6556 15.5404 12.1923 15.5171C12.7523 15.4938 13.3356 15.4938 13.9656 15.4704C14.5956 15.447 15.2723 15.4471 15.9956 15.4237C16.7189 15.4004 17.4189 15.4004 18.1189 15.4004C20.0322 15.4004 21.6189 15.6337 22.9256 16.1237C24.0923 16.5204 25.1656 17.1737 26.0523 18.037C26.799 18.7837 27.3823 19.6937 27.7556 20.697C28.1056 21.677 28.2923 22.6803 28.2923 23.7303C28.2923 25.737 27.8256 27.3936 26.8923 28.7003C25.959 30.007 24.6523 30.987 23.1356 31.547C21.5489 32.1303 19.7989 32.3403 17.8856 32.3403C17.3256 32.3403 16.9523 32.3403 16.7189 32.317C16.4856 32.2937 16.1589 32.2937 15.7156 32.2937V39.7837C15.7389 39.947 15.6223 40.087 15.4589 40.1104C15.4356 40.1104 15.4122 40.1104 15.3656 40.1104H10.9323C10.7456 40.1104 10.6523 40.0171 10.6523 39.8071ZM15.739 20.0438V27.8838C16.0658 27.9071 16.369 27.9305 16.649 27.9305H17.8858C19.497 27.9305 21.3578 27.5518 22.4823 26.2739C23.4502 25.174 23.4529 22.9929 22.669 21.7939C21.7385 20.3706 19.8776 19.9583 18.2823 19.9972C17.6756 19.9972 17.139 19.9972 16.6956 20.0205C16.229 19.9971 15.9023 20.0204 15.739 20.0438Z" fill="#00A9FF"/>
<path d="M42.8524 26.4608C42.1524 26.0875 41.4057 25.8308 40.6124 25.6675C39.7491 25.4808 38.8857 25.3642 37.9991 25.3642C37.5324 25.3409 37.0424 25.4109 36.5991 25.5275C36.2958 25.5975 36.0391 25.7608 35.8758 25.9942C35.7591 26.1809 35.6891 26.4142 35.6891 26.6242C35.6891 26.8342 35.7824 27.0442 35.9224 27.2309C36.1324 27.4876 36.4124 27.6976 36.7157 27.8609C37.2524 28.1409 37.8124 28.3976 38.3724 28.6309C39.6324 29.0509 40.8457 29.6342 41.9657 30.3342C42.7357 30.8242 43.3657 31.4775 43.809 32.2709C44.1823 33.0176 44.369 33.8342 44.3457 34.6742C44.369 35.7709 44.0424 36.8675 43.4357 37.7775C42.7824 38.7108 41.8724 39.4342 40.8224 39.8542C39.6791 40.3442 38.2791 40.6009 36.5991 40.6009C35.5258 40.6009 34.4758 40.5076 33.4258 40.2976C32.6091 40.1576 31.7925 39.9009 31.0458 39.5509C30.8825 39.4576 30.7658 39.2942 30.7891 39.1076V35.0476C30.7891 34.9776 30.8124 34.8843 30.8824 34.8376C30.9524 34.7909 31.0224 34.8143 31.0924 34.8609C32.0024 35.3976 32.9591 35.7709 33.9857 36.0042C34.8724 36.2375 35.8057 36.3542 36.739 36.3542C37.6257 36.3542 38.2557 36.2375 38.6757 36.0275C39.049 35.8642 39.3057 35.4675 39.3057 35.0475C39.3057 34.7208 39.119 34.4175 38.7457 34.1142C38.3724 33.8109 37.6024 33.4609 36.459 33.0175C35.269 32.5975 34.1723 32.0375 33.1457 31.3375C32.4224 30.8242 31.8157 30.1475 31.3724 29.3542C30.9991 28.6075 30.8124 27.7909 30.8357 26.9742C30.8357 25.9709 31.1157 25.0142 31.629 24.1509C32.2123 23.2176 33.0757 22.4709 34.079 22.0042C35.1757 21.4442 36.5523 21.1875 38.209 21.1875C39.1657 21.1875 40.1457 21.2575 41.1023 21.3975C41.8023 21.4908 42.479 21.6775 43.109 21.9342C43.2023 21.9575 43.2957 22.0509 43.3423 22.1442C43.3656 22.2375 43.389 22.3309 43.389 22.4242V26.2275C43.389 26.3208 43.3423 26.4142 43.2723 26.4608C43.0624 26.5075 42.9457 26.5075 42.8524 26.4608Z" fill="#00A9FF"/>
<rect x="0.5" y="0.5" width="55" height="55" rx="9.5" stroke="white" strokeOpacity="0.2"/>
</svg>
