<svg width="550" height="354" viewBox="0 0 550 354" fill="none" xmlns="http://www.w3.org/2000/svg">
<path d="M496.427 21.8209V331.678C496.427 343.721 486.649 353.499 474.606 353.499H21.8219C9.77893 353.499 0.000976562 343.721 0.000976562 331.678V21.8209C0.000976562 9.77796 9.77893 0 21.8219 0H474.606C486.649 0 496.427 9.77796 496.427 21.8209Z" fill="#464646"/>
<path d="M491.569 24.8529V328.646C491.569 340.453 481.982 350.04 470.175 350.04H26.2518C14.4445 350.04 4.85791 340.453 4.85791 328.646V24.8529C4.85791 13.0456 14.4445 3.45898 26.2518 3.45898H470.175C481.982 3.45898 491.569 13.0456 491.569 24.8529Z" fill="#2F2F2F"/>
<path d="M4.92334 24.0927C4.92334 12.5204 14.3041 3.13965 25.8764 3.13965H78.3164V349.563H25.8764C14.3041 349.563 4.92334 340.181 4.92334 328.609V24.0927Z" fill="#FFDD2D"/>
<path d="M116.481 183.201C116.481 182.661 116.918 182.223 117.459 182.223H150.731C151.272 182.223 151.709 182.661 151.709 183.201V185.159C151.709 185.7 151.272 186.138 150.731 186.138H117.459C116.918 186.138 116.481 185.7 116.481 185.159V183.201Z" fill="#E6EBF5"/>
<path d="M168.351 183.201C168.351 182.661 168.787 182.223 169.329 182.223H202.601C203.141 182.223 203.578 182.661 203.578 183.201V185.159C203.578 185.7 203.141 186.138 202.601 186.138H169.329C168.787 186.138 168.351 185.7 168.351 185.159V183.201Z" fill="#E6EBF5"/>
<path d="M221.194 183.201C221.194 182.661 221.63 182.223 222.171 182.223H255.443C255.984 182.223 256.421 182.661 256.421 183.201V185.159C256.421 185.7 255.984 186.138 255.443 186.138H222.171C221.63 186.138 221.194 185.7 221.194 185.159V183.201Z" fill="#E6EBF5"/>
<path d="M273.055 183.201C273.055 182.661 273.491 182.223 274.033 182.223H307.304C307.845 182.223 308.283 182.661 308.283 183.201V185.159C308.283 185.7 307.845 186.138 307.304 186.138H274.033C273.491 186.138 273.055 185.7 273.055 185.159V183.201Z" fill="#E6EBF5"/>
<path d="M331.772 183.201C331.772 182.661 332.208 182.223 332.75 182.223H366.021C366.562 182.223 366.999 182.661 366.999 183.201V185.159C366.999 185.7 366.562 186.138 366.021 186.138H332.75C332.208 186.138 331.772 185.7 331.772 185.159V183.201Z" fill="#E6EBF5"/>
<path d="M392.444 183.201C392.444 182.661 392.881 182.223 393.422 182.223H426.693C427.235 182.223 427.672 182.661 427.672 183.201V185.159C427.672 185.7 427.235 186.138 426.693 186.138H393.422C392.881 186.138 392.444 185.7 392.444 185.159V183.201Z" fill="#E6EBF5"/>
<path d="M40.246 42.8191C40.246 47.9808 36.0631 52.1627 30.9046 52.1627C25.744 52.1627 21.561 47.9808 21.561 42.8191C21.561 37.6585 25.744 33.4756 30.9046 33.4756C36.0631 33.4756 40.246 37.6585 40.246 42.8191Z" fill="white"/>
<path d="M32.7716 44.5204C33.4354 44.6555 33.8705 44.8746 34.0567 45.2289C34.196 45.5065 34.196 45.8342 34.0567 46.1097C33.8705 46.464 33.4535 46.698 32.7652 46.8182C32.4588 46.881 32.1471 46.9193 31.8354 46.9384C31.545 46.9703 31.2578 46.9714 30.9641 46.9714H30.4365C30.3269 46.9555 30.2205 46.9491 30.1173 46.9491C29.8056 46.9331 29.495 46.8959 29.1886 46.832C28.5237 46.7055 28.0908 46.4778 27.9056 46.1257C27.8333 45.9874 27.795 45.8342 27.795 45.6778C27.7929 45.5225 27.8291 45.3672 27.9003 45.2289C28.0822 44.8746 28.5173 44.6438 29.1886 44.5204C29.4961 44.4608 29.8078 44.4214 30.1205 44.4055C30.6939 44.3587 31.2705 44.3587 31.8429 44.4055C32.1556 44.4225 32.4641 44.4619 32.7716 44.5204ZM33.0694 41.1598C33.0694 42.3459 32.1333 43.3087 30.979 43.3087C29.8248 43.3087 28.8897 42.3459 28.8897 41.1598C28.8897 39.9747 29.8248 39.0098 30.979 39.0098C32.1333 39.0098 33.0694 39.9747 33.0694 41.1598Z" fill="#FFDD2D"/>
<path d="M21.561 85.3402C21.561 84.2594 22.4366 83.3828 23.5185 83.3828H29.3886C30.4705 83.3828 31.3461 84.2594 31.3461 85.3402V91.2136C31.3461 92.2944 30.4705 93.17 29.3886 93.17H23.5185C22.4366 93.17 21.561 92.2944 21.561 91.2136V85.3402Z" fill="white"/>
<path d="M38.2002 87.299C38.2002 86.7586 38.6374 86.3203 39.1789 86.3203H65.6C66.1404 86.3203 66.5787 86.7586 66.5787 87.299V89.2565C66.5787 89.7979 66.1404 90.2352 65.6 90.2352H39.1789C38.6374 90.2352 38.2002 89.7979 38.2002 89.2565V87.299Z" fill="white"/>
<path d="M21.561 202.77C21.561 201.689 22.4366 200.812 23.5185 200.812H29.3886C30.4705 200.812 31.3461 201.689 31.3461 202.77V208.643C31.3461 209.724 30.4705 210.6 29.3886 210.6H23.5185C22.4366 210.6 21.561 209.724 21.561 208.643V202.77Z" fill="white"/>
<path d="M38.2002 204.732C38.2002 204.191 38.6374 203.753 39.1789 203.753H65.6C66.1404 203.753 66.5787 204.191 66.5787 204.732V206.689C66.5787 207.231 66.1404 207.668 65.6 207.668H39.1789C38.6374 207.668 38.2002 207.231 38.2002 206.689V204.732Z" fill="white"/>
<path d="M21.561 144.057C21.561 142.976 22.4366 142.1 23.5185 142.1H29.3886C30.4705 142.1 31.3461 142.976 31.3461 144.057V149.93C31.3461 151.011 30.4705 151.887 29.3886 151.887H23.5185C22.4366 151.887 21.561 151.011 21.561 149.93V144.057Z" fill="white"/>
<path d="M38.2002 146.018C38.2002 145.477 38.6374 145.039 39.1789 145.039H65.6C66.1404 145.039 66.5787 145.477 66.5787 146.018V147.975C66.5787 148.517 66.1404 148.954 65.6 148.954H39.1789C38.6374 148.954 38.2002 148.517 38.2002 147.975V146.018Z" fill="white"/>
<path d="M21.561 261.49C21.561 260.409 22.4366 259.532 23.5185 259.532H29.3886C30.4705 259.532 31.3461 260.409 31.3461 261.49V267.363C31.3461 268.444 30.4705 269.319 29.3886 269.319H23.5185C22.4366 269.319 21.561 268.444 21.561 267.363V261.49Z" fill="white"/>
<path d="M38.2007 263.449C38.2007 262.909 38.6379 262.471 39.1794 262.471H65.6005C66.1409 262.471 66.5792 262.909 66.5792 263.449V265.407C66.5792 265.948 66.1409 266.386 65.6005 266.386H39.1794C38.6379 266.386 38.2007 265.948 38.2007 265.407V263.449Z" fill="white"/>
<path d="M21.561 114.698C21.561 113.617 22.4366 112.74 23.5185 112.74H29.3886C30.4705 112.74 31.3461 113.617 31.3461 114.698V120.571C31.3461 121.652 30.4705 122.527 29.3886 122.527H23.5185C22.4366 122.527 21.561 121.652 21.561 120.571V114.698Z" fill="white"/>
<path d="M38.2007 116.658C38.2007 116.118 38.6379 115.68 39.1794 115.68H65.6005C66.1409 115.68 66.5792 116.118 66.5792 116.658V118.616C66.5792 119.157 66.1409 119.595 65.6005 119.595H39.1794C38.6379 119.595 38.2007 119.157 38.2007 118.616V116.658Z" fill="white"/>
<path d="M21.561 232.13C21.561 231.049 22.4366 230.173 23.5185 230.173H29.3886C30.4705 230.173 31.3461 231.049 31.3461 232.13V238.004C31.3461 239.084 30.4705 239.96 29.3886 239.96H23.5185C22.4366 239.96 21.561 239.084 21.561 238.004V232.13Z" fill="white"/>
<path d="M38.2002 234.091C38.2002 233.551 38.6374 233.112 39.1789 233.112H65.6C66.1404 233.112 66.5787 233.551 66.5787 234.091V236.048C66.5787 236.59 66.1404 237.027 65.6 237.027H39.1789C38.6374 237.027 38.2002 236.59 38.2002 236.048V234.091Z" fill="white"/>
<path d="M21.561 173.416C21.561 172.336 22.4366 171.459 23.5185 171.459H29.3886C30.4705 171.459 31.3461 172.336 31.3461 173.416V179.29C31.3461 180.371 30.4705 181.246 29.3886 181.246H23.5185C22.4366 181.246 21.561 180.371 21.561 179.29V173.416Z" fill="white"/>
<path d="M38.2007 175.376C38.2007 174.836 38.6379 174.397 39.1794 174.397H65.6005C66.1409 174.397 66.5792 174.836 66.5792 175.376V177.334C66.5792 177.875 66.1409 178.312 65.6005 178.312H39.1794C38.6379 178.312 38.2007 177.875 38.2007 177.334V175.376Z" fill="white"/>
<path d="M21.561 290.848C21.561 289.767 22.4366 288.891 23.5185 288.891H29.3886C30.4705 288.891 31.3461 289.767 31.3461 290.848V296.72C31.3461 297.801 30.4705 298.678 29.3886 298.678H23.5185C22.4366 298.678 21.561 297.801 21.561 296.72V290.848Z" fill="white"/>
<path d="M38.2002 292.809C38.2002 292.268 38.6374 291.83 39.1789 291.83H65.6C66.1404 291.83 66.5787 292.268 66.5787 292.809V294.766C66.5787 295.307 66.1404 295.745 65.6 295.745H39.1789C38.6374 295.745 38.2002 295.307 38.2002 294.766V292.809Z" fill="white"/>
<path d="M116.482 162.649C116.482 160.489 118.235 158.734 120.397 158.734H143.023C145.184 158.734 146.938 160.489 146.938 162.649C146.938 164.811 145.184 166.564 143.023 166.564H120.397C118.235 166.564 116.482 164.811 116.482 162.649Z" fill="#E6EBF5"/>
<path d="M221.253 162.649C221.253 160.489 223.005 158.734 225.167 158.734H247.794C249.956 158.734 251.708 160.489 251.708 162.649C251.708 164.811 249.956 166.564 247.794 166.564H225.167C223.005 166.564 221.253 164.811 221.253 162.649Z" fill="#E6EBF5"/>
<path d="M332.115 162.649C332.115 160.489 333.867 158.734 336.029 158.734H358.656C360.818 158.734 362.57 160.489 362.57 162.649C362.57 164.811 360.818 166.564 358.656 166.564H336.029C333.867 166.564 332.115 164.811 332.115 162.649Z" fill="#E6EBF5"/>
<path d="M168.869 162.649C168.869 160.489 170.621 158.734 172.784 158.734H195.409C197.571 158.734 199.324 160.489 199.324 162.649C199.324 164.811 197.571 166.564 195.409 166.564H172.784C170.621 166.564 168.869 164.811 168.869 162.649Z" fill="#E6EBF5"/>
<path d="M273.638 162.649C273.638 160.489 275.39 158.734 277.551 158.734H300.179C302.341 158.734 304.093 160.489 304.093 162.649C304.093 164.811 302.341 166.564 300.179 166.564H277.551C275.39 166.564 273.638 164.811 273.638 162.649Z" fill="#E6EBF5"/>
<path d="M384.5 162.649C384.5 160.489 386.251 158.734 388.413 158.734H411.041C413.203 158.734 414.955 160.489 414.955 162.649C414.955 164.811 413.203 166.564 411.041 166.564H388.413C386.251 166.564 384.5 164.811 384.5 162.649Z" fill="#E6EBF5"/>
<g opacity="0.2">
<path d="M99.8433 230.174C99.8433 224.771 104.224 220.389 109.628 220.389H227.06C232.466 220.389 236.847 224.771 236.847 230.174V318.249C236.847 323.654 232.466 328.035 227.06 328.035H109.628C104.224 328.035 99.8433 323.654 99.8433 318.249V230.174Z" fill="white"/>
<path d="M119.416 288.4C119.416 287.049 120.51 285.954 121.862 285.954H150.242C151.592 285.954 152.688 287.049 152.688 288.4C152.688 289.752 151.592 290.848 150.242 290.848H121.862C120.51 290.848 119.416 289.752 119.416 288.4Z" fill="#D5D9E4"/>
<path d="M119.416 300.144C119.416 298.793 120.51 297.698 121.862 297.698H184.492C185.843 297.698 186.938 298.793 186.938 300.144C186.938 301.496 185.843 302.592 184.492 302.592H121.862C120.51 302.592 119.416 301.496 119.416 300.144Z" fill="#E6EBF5"/>
<path d="M119.416 311.887C119.416 310.536 120.51 309.441 121.862 309.441H184.492C185.843 309.441 186.938 310.536 186.938 311.887C186.938 313.239 185.843 314.335 184.492 314.335H121.862C120.51 314.335 119.416 313.239 119.416 311.887Z" fill="#E6EBF5"/>
</g>
<path d="M99.8433 230.174C99.8433 224.771 104.224 220.389 109.628 220.389H227.06C232.466 220.389 236.847 224.771 236.847 230.174V318.249C236.847 323.654 232.466 328.035 227.06 328.035H109.628C104.224 328.035 99.8433 323.654 99.8433 318.249V230.174Z" fill="#5F6168"/>
<path d="M119.416 288.4C119.416 287.049 120.51 285.954 121.862 285.954H150.242C151.592 285.954 152.688 287.049 152.688 288.4C152.688 289.752 151.592 290.848 150.242 290.848H121.862C120.51 290.848 119.416 289.752 119.416 288.4Z" fill="#D5D9E4"/>
<path d="M119.416 300.144C119.416 298.793 120.51 297.698 121.862 297.698H184.492C185.843 297.698 186.938 298.793 186.938 300.144C186.938 301.496 185.843 302.592 184.492 302.592H121.862C120.51 302.592 119.416 301.496 119.416 300.144Z" fill="#E6EBF5"/>
<path d="M119.416 311.887C119.416 310.536 120.51 309.441 121.862 309.441H184.492C185.843 309.441 186.938 310.536 186.938 311.887C186.938 313.239 185.843 314.335 184.492 314.335H121.862C120.51 314.335 119.416 313.239 119.416 311.887Z" fill="#E6EBF5"/>
<path d="M123.094 239.961H148.032C150.064 239.961 151.709 241.609 151.709 243.639V268.577C151.709 270.61 150.064 272.254 148.032 272.254H123.094C121.063 272.254 119.416 270.61 119.416 268.577V243.639C119.416 241.609 121.063 239.961 123.094 239.961Z" fill="#F48FBC"/>
<path d="M137.53 255.159C138.344 254.106 139.945 254.162 140.684 255.255L140.719 255.309L147.503 266.044H123.631L128.267 258.853C128.933 257.819 130.373 257.657 131.253 258.502L131.299 258.547L133.322 260.622L137.53 255.159Z" fill="white"/>
<mask id="mask0_2028_1714" style="mask-type:alpha" maskUnits="userSpaceOnUse" x="119" y="239" width="33" height="34">
<path d="M123.094 239.962H148.032C150.064 239.962 151.709 241.61 151.709 243.64V268.578C151.709 270.611 150.064 272.255 148.032 272.255H123.094C121.063 272.255 119.416 270.611 119.416 268.578V243.64C119.416 241.61 121.063 239.962 123.094 239.962Z" fill="#F48FBC"/>
</mask>
<g mask="url(#mask0_2028_1714)">
<path d="M129.279 246.18C131.177 246.18 132.716 247.723 132.716 249.628C132.716 251.532 131.177 253.075 129.279 253.075C127.381 253.075 125.842 251.532 125.842 249.628C125.842 247.723 127.381 246.18 129.279 246.18Z" fill="white"/>
</g>
<g opacity="0.2">
<path d="M256.425 230.174C256.425 224.771 260.806 220.389 266.21 220.389H383.642C389.047 220.389 393.428 224.771 393.428 230.174V318.249C393.428 323.654 389.047 328.035 383.642 328.035H266.21C260.806 328.035 256.425 323.654 256.425 318.249V230.174Z" fill="white"/>
<path d="M275.998 288.4C275.998 287.049 277.092 285.954 278.444 285.954H306.823C308.173 285.954 309.268 287.049 309.268 288.4C309.268 289.752 308.173 290.848 306.823 290.848H278.444C277.092 290.848 275.998 289.752 275.998 288.4Z" fill="#D5D9E4"/>
<path d="M275.997 300.144C275.997 298.793 277.092 297.698 278.444 297.698H341.073C342.424 297.698 343.52 298.793 343.52 300.144C343.52 301.496 342.424 302.592 341.073 302.592H278.444C277.092 302.592 275.997 301.496 275.997 300.144Z" fill="#E6EBF5"/>
<path d="M275.997 311.887C275.997 310.536 277.091 309.441 278.443 309.441H341.073C342.424 309.441 343.519 310.536 343.519 311.887C343.519 313.239 342.424 314.335 341.073 314.335H278.443C277.091 314.335 275.997 313.239 275.997 311.887Z" fill="#E6EBF5"/>
</g>
<path d="M256.425 230.174C256.425 224.771 260.806 220.389 266.21 220.389H383.642C389.047 220.389 393.428 224.771 393.428 230.174V318.249C393.428 323.654 389.047 328.035 383.642 328.035H266.21C260.806 328.035 256.425 323.654 256.425 318.249V230.174Z" fill="#5F6168"/>
<path d="M275.998 288.4C275.998 287.049 277.092 285.954 278.444 285.954H306.823C308.173 285.954 309.268 287.049 309.268 288.4C309.268 289.752 308.173 290.848 306.823 290.848H278.444C277.092 290.848 275.998 289.752 275.998 288.4Z" fill="#D5D9E4"/>
<path d="M275.997 300.144C275.997 298.793 277.092 297.698 278.444 297.698H341.073C342.424 297.698 343.52 298.793 343.52 300.144C343.52 301.496 342.424 302.592 341.073 302.592H278.444C277.092 302.592 275.997 301.496 275.997 300.144Z" fill="#E6EBF5"/>
<path d="M275.997 311.887C275.997 310.536 277.091 309.441 278.443 309.441H341.073C342.424 309.441 343.519 310.536 343.519 311.887C343.519 313.239 342.424 314.335 341.073 314.335H278.443C277.091 314.335 275.997 313.239 275.997 311.887Z" fill="#E6EBF5"/>
<path d="M279.674 239.96H304.612C306.644 239.96 308.29 241.608 308.29 243.638V268.576C308.29 270.609 306.644 272.253 304.612 272.253H279.674C277.643 272.253 275.997 270.609 275.997 268.576V243.638C275.997 241.608 277.643 239.96 279.674 239.96Z" fill="#8E6DDA"/>
<path d="M291.903 245.778L294.047 245.953C294.213 245.966 294.348 246.091 294.375 246.256L294.63 247.802C295.625 248.103 296.573 248.586 297.421 249.247L298.84 248.543C298.988 248.471 299.17 248.508 299.277 248.634L300.671 250.275C300.778 250.401 300.785 250.586 300.689 250.72L299.766 252.009L299.75 252.022C300.25 252.96 300.561 253.966 300.69 254.987L300.724 254.988L302.225 255.498C302.383 255.551 302.484 255.704 302.47 255.87L302.297 258.015C302.283 258.18 302.158 258.315 301.995 258.342L300.429 258.601L300.384 258.598C300.087 259.577 299.615 260.512 298.971 261.349L299.002 261.385L299.703 262.807C299.777 262.957 299.741 263.136 299.613 263.244L297.974 264.637C297.847 264.744 297.663 264.753 297.527 264.655L296.238 263.733L296.208 263.698C295.277 264.201 294.279 264.517 293.262 264.655L293.26 264.691L292.75 266.194C292.698 266.35 292.545 266.451 292.378 266.439L290.234 266.263C290.068 266.25 289.933 266.125 289.906 265.961L289.647 264.397L289.649 264.376C288.659 264.083 287.713 263.612 286.865 262.967L286.862 262.969L285.441 263.672C285.293 263.744 285.111 263.708 285.005 263.582L283.611 261.941C283.503 261.814 283.496 261.629 283.592 261.495L284.507 260.219C283.99 259.271 283.664 258.252 283.528 257.216L282.056 256.719C281.899 256.665 281.797 256.512 281.811 256.346L281.984 254.202C281.999 254.035 282.123 253.9 282.286 253.873L283.808 253.621C284.106 252.611 284.591 251.648 285.257 250.786L284.578 249.409C284.504 249.259 284.542 249.079 284.669 248.972L286.308 247.579C286.435 247.471 286.618 247.464 286.753 247.561L288.005 248.456C288.962 247.941 289.989 247.619 291.033 247.489L291.53 246.022C291.584 245.865 291.737 245.764 291.903 245.778ZM288.711 259.081C290.332 260.99 293.193 261.223 295.102 259.602C297.01 257.982 297.242 255.121 295.621 253.213C294 251.304 291.139 251.069 289.231 252.69C287.322 254.311 287.09 257.173 288.711 259.081Z" fill="white"/>
<g opacity="0.2">
<path d="M412.997 230.174C412.997 224.771 417.378 220.389 422.782 220.389H540.214C545.62 220.389 550 224.771 550 230.174V318.249C550 323.654 545.62 328.035 540.214 328.035H422.782C417.378 328.035 412.997 323.654 412.997 318.249V230.174Z" fill="white"/>
<path d="M432.571 288.4C432.571 287.049 433.665 285.954 435.017 285.954H463.397C464.747 285.954 465.841 287.049 465.841 288.4C465.841 289.752 464.747 290.848 463.397 290.848H435.017C433.665 290.848 432.571 289.752 432.571 288.4Z" fill="#D5D9E4"/>
<path d="M432.57 300.144C432.57 298.793 433.665 297.698 435.017 297.698H497.646C498.997 297.698 500.093 298.793 500.093 300.144C500.093 301.496 498.997 302.592 497.646 302.592H435.017C433.665 302.592 432.57 301.496 432.57 300.144Z" fill="#E6EBF5"/>
<path d="M432.57 311.887C432.57 310.536 433.665 309.441 435.017 309.441H497.646C498.997 309.441 500.093 310.536 500.093 311.887C500.093 313.239 498.997 314.335 497.646 314.335H435.017C433.665 314.335 432.57 313.239 432.57 311.887Z" fill="#E6EBF5"/>
</g>
<path d="M412.997 230.174C412.997 224.771 417.378 220.389 422.782 220.389H540.214C545.62 220.389 550 224.771 550 230.174V318.249C550 323.654 545.62 328.035 540.214 328.035H422.782C417.378 328.035 412.997 323.654 412.997 318.249V230.174Z" fill="#5F6168"/>
<path d="M432.571 288.4C432.571 287.049 433.665 285.954 435.017 285.954H463.397C464.747 285.954 465.841 287.049 465.841 288.4C465.841 289.752 464.747 290.848 463.397 290.848H435.017C433.665 290.848 432.571 289.752 432.571 288.4Z" fill="#D5D9E4"/>
<path d="M432.57 300.144C432.57 298.793 433.665 297.698 435.017 297.698H497.646C498.997 297.698 500.093 298.793 500.093 300.144C500.093 301.496 498.997 302.592 497.646 302.592H435.017C433.665 302.592 432.57 301.496 432.57 300.144Z" fill="#E6EBF5"/>
<path d="M432.57 311.887C432.57 310.536 433.665 309.441 435.017 309.441H497.646C498.997 309.441 500.093 310.536 500.093 311.887C500.093 313.239 498.997 314.335 497.646 314.335H435.017C433.665 314.335 432.57 313.239 432.57 311.887Z" fill="#E6EBF5"/>
<path d="M436.248 239.96H461.186C463.218 239.96 464.864 241.608 464.864 243.638V268.576C464.864 270.609 463.218 272.253 461.186 272.253H436.248C434.217 272.253 432.57 270.609 432.57 268.576V243.638C432.57 241.608 434.217 239.96 436.248 239.96Z" fill="#FFDD2D"/>
<mask id="mask1_2028_1714" style="mask-type:alpha" maskUnits="userSpaceOnUse" x="432" y="239" width="33" height="34">
<path d="M436.248 239.961H461.186C463.218 239.961 464.864 241.609 464.864 243.639V268.577C464.864 270.61 463.218 272.254 461.186 272.254H436.248C434.217 272.254 432.57 270.61 432.57 268.577V243.639C432.57 241.609 434.217 239.961 436.248 239.961Z" fill="#FFDD2D"/>
</mask>
<g mask="url(#mask1_2028_1714)">
<path d="M440.399 250.706L448.551 246.632C448.647 246.585 448.758 246.581 448.855 246.62L448.879 246.632L457.033 250.706C456.998 259.36 454.221 264.303 448.716 265.624C443.266 264.316 440.491 259.457 440.4 250.964L440.399 250.706L448.551 246.632L440.399 250.706ZM451.514 253.08L448.201 256.943L445.991 255.479C445.589 255.212 445.042 255.317 444.772 255.712C444.5 256.107 444.608 256.643 445.01 256.91L447.873 258.806C448.245 259.05 448.745 258.983 449.036 258.646L452.856 254.193C453.168 253.827 453.122 253.283 452.75 252.977C452.379 252.669 451.827 252.715 451.514 253.08Z" fill="white"/>
</g>
<mask id="mask2_2028_1714" style="mask-type:alpha" maskUnits="userSpaceOnUse" x="116" y="28" width="340" height="115">
<g opacity="0.7">
<path d="M116.483 38.37C116.483 32.9668 120.864 28.585 126.268 28.585H445.291C450.695 28.585 455.076 32.9668 455.076 38.37V132.316C455.076 137.72 450.695 142.103 445.291 142.103H126.268C120.864 142.103 116.483 137.72 116.483 132.316V38.37Z" fill="#EBECFA"/>
</g>
</mask>
<g mask="url(#mask2_2028_1714)">
<g opacity="0.4">
<path d="M268.336 121.674C197.739 105.038 137.935 128.607 116.858 142.471H411.415C416.82 142.471 486.891 161.228 486.891 155.823C486.891 155.823 553.25 153.617 555.339 154.025C591.482 161.068 493.324 98.9583 458.168 89.6498C446.191 86.4786 430.845 90.4477 421.2 93.5402C371.864 109.36 338.932 138.312 268.336 121.674Z" fill="#D1D8ED"/>
</g>
</g>
<mask id="mask3_2028_1714" style="mask-type:alpha" maskUnits="userSpaceOnUse" x="116" y="28" width="340" height="115">
<g opacity="0.7">
<path d="M116.483 38.37C116.483 32.9668 120.864 28.585 126.268 28.585H445.291C450.695 28.585 455.076 32.9668 455.076 38.37V132.316C455.076 137.72 450.695 142.103 445.291 142.103H126.268C120.864 142.103 116.483 137.72 116.483 132.316V38.37Z" fill="#EBECFA"/>
</g>
</mask>
<g mask="url(#mask3_2028_1714)">
<g opacity="0.4">
<path d="M137.304 84.6369C112.295 121.164 91.1522 134.064 78.4683 145.503C78.4683 145.503 85.8001 142.26 91.2214 142.238L410.243 140.894C415.633 140.871 530.909 160.127 530.46 149.944C530.46 149.944 479.447 54.1446 437.941 32.3362C432.564 29.5107 425.285 32.499 419.989 35.4745C390.383 52.1084 375.575 120.239 334.295 90.5698C293.016 60.903 290.925 84.6369 241.809 127.02C192.691 169.401 169.475 37.6489 137.304 84.6369Z" fill="#DDE3FA"/>
</g>
</g>
</svg>
