<svg width="56" height="56" viewBox="0 0 56 56" fill="none" xmlns="http://www.w3.org/2000/svg">
<rect width="56" height="56" rx="10" fill="#00BCF2"/>
<g clip-path="url(#clip0_2044_6923)">
<path d="M37.7776 34.1667V19.5H35.3331V36.6111H45.1109V34.1667H37.7776ZM30.4442 19.5H25.5553C24.907 19.5 24.2853 19.7575 23.8269 20.216C23.3684 20.6744 23.1109 21.2961 23.1109 21.9444V34.1667C23.1109 34.815 23.3684 35.4367 23.8269 35.8951C24.2853 36.3536 24.907 36.6111 25.5553 36.6111H26.7776V39.0556C26.7776 39.7039 27.0351 40.3256 27.4935 40.784C27.9519 41.2425 28.5737 41.5 29.222 41.5H31.6664V39.0556H29.222V36.6111H30.4442C31.0925 36.6111 31.7143 36.3536 32.1727 35.8951C32.6311 35.4367 32.8887 34.815 32.8887 34.1667V21.9444C32.8887 21.2961 32.6311 20.6744 32.1727 20.216C31.7143 19.7575 31.0925 19.5 30.4442 19.5ZM25.5553 34.1667V21.9444H30.4442V34.1667H25.5553ZM18.222 36.6111H10.8887V34.1667H18.222V29.2778H13.3331C12.6848 29.2778 12.0631 29.0202 11.6046 28.5618C11.1462 28.1034 10.8887 27.4816 10.8887 26.8333V21.9444C10.8887 21.2961 11.1462 20.6744 11.6046 20.216C12.0631 19.7575 12.6848 19.5 13.3331 19.5H20.6664V21.9444H13.3331V26.8333H18.222C18.8703 26.8333 19.4921 27.0909 19.9505 27.5493C20.4089 28.0077 20.6664 28.6295 20.6664 29.2778V34.1667C20.6664 34.815 20.4089 35.4367 19.9505 35.8951C19.4921 36.3536 18.8703 36.6111 18.222 36.6111Z" fill="white"/>
</g>
<rect x="0.5" y="0.5" width="55" height="55" rx="9.5" stroke="white" stroke-opacity="0.2"/>
<defs>
<clipPath id="clip0_2044_6923">
<rect width="34.2222" height="22" fill="white" transform="translate(10.8887 19.5)"/>
</clipPath>
</defs>
</svg>
