<svg width="56" height="56" viewBox="0 0 56 56" fill="none" xmlns="http://www.w3.org/2000/svg">
<rect width="56" height="56" rx="10" fill="#4353FF"/>
<path d="M37.703 22.84C37.703 22.84 34.784 31.9945 34.5455 32.7505C33.8104 27.0131 33.0684 21.2766 32.3195 15.541C27.3455 15.541 24.686 19.081 23.2805 22.8175L19.433 32.773C19.4105 32.059 18.893 22.9255 18.893 22.9255C18.587 18.3475 14.393 15.5605 11 15.5605L15.1085 40.4605C20.3195 40.438 23.129 36.919 24.6005 33.1825C24.6005 33.1825 27.7355 25.0855 27.8645 24.718C27.887 25.063 30.1145 40.459 30.1145 40.459C35.3465 40.459 38.1575 37.156 39.6695 33.55L47 15.562C41.8325 15.562 39.1085 19.081 37.703 22.8385V22.84Z" fill="white"/>
<rect x="0.5" y="0.5" width="55" height="55" rx="9.5" stroke="white" stroke-opacity="0.2"/>
</svg>
