<svg width="56" height="56" viewBox="0 0 56 56" fill="none" xmlns="http://www.w3.org/2000/svg">
<rect width="56" height="56" rx="10" fill="#05A8DA"/>
<path d="M27.9998 12.167C19.2757 12.167 12.1665 19.2762 12.1665 28.0003C12.1665 36.7245 19.2757 43.8337 27.9998 43.8337C36.724 43.8337 43.8332 36.7245 43.8332 28.0003C43.8332 19.2762 36.724 12.167 27.9998 12.167ZM13.7657 28.0003C13.7657 25.942 14.209 23.9787 15.0007 22.2053L21.7932 40.8095C17.0432 38.4978 13.7657 33.637 13.7657 28.0003ZM27.9998 42.2345C26.6065 42.2345 25.2607 42.0287 23.9782 41.6487L28.2532 29.2353L32.6232 41.2212C32.6548 41.2845 32.6865 41.3637 32.7182 41.4112C31.2457 41.9495 29.6623 42.2345 27.9998 42.2345ZM29.9632 21.3187C30.8182 21.2712 31.594 21.1762 31.594 21.1762C32.354 21.0812 32.2748 19.957 31.499 20.0045C31.499 20.0045 29.1873 20.1787 27.699 20.1787C26.3057 20.1787 23.9465 20.0045 23.9465 20.0045C23.1865 19.9728 23.0915 21.1445 23.8673 21.192C23.8673 21.192 24.5957 21.287 25.3557 21.3345L27.5723 27.4145L24.4532 36.7562L19.2757 21.3187C20.1307 21.287 20.9065 21.192 20.9065 21.192C21.6665 21.097 21.5873 19.9728 20.8115 20.0203C20.8115 20.0203 18.4998 20.1945 17.0115 20.1945C16.7423 20.1945 16.4257 20.1945 16.0932 20.1787C18.6582 16.3153 23.0282 13.7662 27.9998 13.7662C31.7048 13.7662 35.0773 15.1753 37.6107 17.5028C37.5473 17.5028 37.484 17.487 37.4207 17.487C36.0273 17.487 35.0298 18.7062 35.0298 20.0203C35.0298 21.192 35.7107 22.1895 36.4232 23.3612C36.9615 24.3112 37.5948 25.5303 37.5948 27.2878C37.5948 28.507 37.1198 29.9162 36.5182 31.8953L35.0932 36.6453L29.9632 21.3187ZM40.4923 21.1762C42.2708 24.4309 42.7082 28.2514 41.7116 31.8239C40.715 35.3964 38.363 38.4387 35.1565 40.3028L39.5107 27.7312C40.3182 25.7045 40.5873 24.0737 40.5873 22.6328C40.5873 22.1103 40.5557 21.6195 40.4923 21.1762Z" fill="white"/>
<rect x="0.5" y="0.5" width="55" height="55" rx="9.5" stroke="white" stroke-opacity="0.2"/>
</svg>
